<svg xmlns="http://www.w3.org/2000/svg" xmlns:xlink="http://www.w3.org/1999/xlink" width="64" height="64"><g transform="matrix(.061615 0 0 .061615 -1.430818 -1.2754)"><defs fill="#000000"><path id="A" d="M959.4 500L679.8 779.7l279.6 279.7H639.9L360.2 779.7 639.9 500h319.5zM639.9 20.7L120.6 540l159.8 159.8 679-679.1H639.9z" fill="#000000"/></defs><clipPath id="B" fill="#000000"><use xlink:href="#A" fill="#000000"/></clipPath><g clip-path="url(#B)"><path d="M360.3 779.7L520 939.5 959.4 500H639.9z" fill="#9ebdf0"/></g><defs fill="#000000"><path id="C" d="M959.4 500L679.8 779.7l279.6 279.7H639.9L360.2 779.7 639.9 500h319.5zM639.9 20.7L120.6 540l159.8 159.8 679-679.1H639.9z" fill="#000000"/></defs><clipPath id="D" fill="#000000"><use xlink:href="#C" fill="#000000"/></clipPath><path clip-path="url(#D)" d="M639.9 20.7h319.5l-679 679.1L120.6 540z" fill="#9ebdf0"/><defs fill="#000000"><path id="E" d="M959.4 500L679.8 779.7l279.6 279.7H639.9L360.2 779.7 639.9 500h319.5zM639.9 20.7L120.6 540l159.8 159.8 679-679.1H639.9z" fill="#000000"/></defs><clipPath id="F" fill="#000000"><use xlink:href="#E" fill="#000000"/></clipPath><path clip-path="url(#F)" d="M520 939.5l119.9 119.8h319.5L679.8 779.7z" fill="#9ebdf0"/><defs fill="#000000"><path id="G" d="M959.4 500L679.8 779.7l279.6 279.7H639.9L360.2 779.7 639.9 500h319.5zM639.9 20.7L120.6 540l159.8 159.8 679-679.1H639.9z" fill="#000000"/></defs><clipPath id="H" fill="#000000"><use xlink:href="#G" fill="#000000"/></clipPath><linearGradient id="I" gradientUnits="userSpaceOnUse" x1="566.635" y1="970.339" x2="685.65" y2="851.324" fill="#000000"><stop offset="0" stop-color="#9ebdf0" stop-opacity=".4" fill="#000000"/><stop offset="1" stop-color="#9ebdf0" stop-opacity="0" fill="#000000"/></linearGradient><path clip-path="url(#H)" d="M757 857.4l-77.2-77.7L520 939.5z" fill="url(#I)"/><defs fill="#000000"><path id="J" d="M959.4 500L679.8 779.7l279.6 279.7H639.9L360.2 779.7 639.9 500h319.5zM639.9 20.7L120.6 540l159.8 159.8 679-679.1H639.9z" fill="#000000"/></defs><clipPath id="K" fill="#000000"><use xlink:href="#J" fill="#000000"/></clipPath><g clip-path="url(#K)"><path d="M360.282 779.645L520.086 619.84 679.9 779.645 520.086 939.45z" fill="#9ebdf0"/></g><radialGradient id="L" cx="7824.659" cy="-2855.979" r="5082.889" gradientTransform="matrix(0.25,0,0,-0.25,-1812,-622.5)" gradientUnits="userSpaceOnUse" fill="#000000"><stop offset="0" stop-color="#fff" stop-opacity=".1" fill="#000000"/><stop offset="1" stop-color="#fff" stop-opacity="0" fill="#000000"/></radialGradient><path d="M959.4 500L679.8 779.7l279.6 279.7H639.9L360.2 779.7 639.9 500h319.5zM639.9 20.7L120.6 540l159.8 159.8 679-679.1H639.9z" fill="url(#L)"/></g></svg>